<svg xmlns="http://www.w3.org/2000/svg" viewBox="0 0 32 32">
  <rect width="32" height="32" rx="8" fill="#2a2a2b"/>
  <path d="M11 8c-2.5 0-4 1.8-4 4 0 2 1.3 3.2 3 3.2 1.2 0 2-.7 2-1.7 0-.8-.5-1.3-1.2-1.3-.5 0-.9.3-.9.8 0 .3.2.5.2.7 0 .2-.2.3-.5.3-.7 0-1.2-.6-1.2-1.6 0-1.3.9-2.2 2.3-2.2 1.6 0 2.7 1.2 2.7 3 0 2.2-1.6 3.9-4 4.4v2.1c3.8-.5 6.2-3 6.2-6.4C17.8 10.3 15 8 11 8z" fill="#b58951"/>
  <path d="M21 11c1.9 0 3 1.3 3 3 0 1.5-1 2.5-2.3 2.5-.9 0-1.5-.5-1.5-1.3 0-.6.4-1 1-1 .4 0 .6.2.7.5.2-.1.3-.3.3-.6 0-.6-.5-1-1.2-1-1 0-1.7.8-1.7 2 0 1.5 1.1 2.5 2.7 2.5v1.7c-2.6 0-4.5-1.7-4.5-4.2 0-2.5 1.7-4.1 3.5-4.1z" fill="#b58951" opacity="0.75"/>
</svg>
